# xmcd
#
# Track frame offsets:
#	151
#	12663
#	31222
#	55319
#	75254
#	91855
#	107114
#	136777
#	151472
#	175089
#	192408
#	216337
#	232114
#	247163
#
# Disc length: 3404 seconds
#
# Revision: 1
# Processed by: cddbd v1.5.1PL0 Copyright (c) Steve Scherf et al.
# Submitted via: EasyCDDAExtractor 5.0.7
#
DISCID=ba0d4a0e
DTITLE=Eugene Huggins - Life is a Nightmare
DYEAR=1999
DGENRE=Blues
TTITLE0=Statesboro Blues
TTITLE1=Life is a Nightmare
TTITLE2=Take it Off
TTITLE3=Cocaine and Whiskey
TTITLE4=If The Washing Don't Get You
TTITLE5=Someday
TTITLE6=Shake Your Hips
TTITLE7=The Look That Kills
TTITLE8=As The Years Go Passing By
TTITLE9=If You Love Me Like You Say
TTITLE10=Fool's Paradise
TTITLE11=Blues Before Sunrise
TTITLE12=Come On in My Kitchen
TTITLE13=Nobody's Fault But Mine
EXTD=
EXTT0=
EXTT1=
EXTT2=
EXTT3=
EXTT4=
EXTT5=
EXTT6=
EXTT7=
EXTT8=
EXTT9=
EXTT10=
EXTT11=
EXTT12=
EXTT13=
PLAYORDER=
